# xmcd CD database file
#
# Track frame offsets:
#	183
#	9758
#	18445
#	28508
#	37910
#	49110
#	61140
#	71515
#	88963
#	98353
#	117323
#	127168
#	135640
#	152610
#	165038
#	174905
#
# Disc length: 2457 seconds
#
# Revision: 0
# Processed by: cddbd v1.4PL0 Copyright (c) Steve Scherf et al.
# Submitted via: CDex 1.40Beta9
#
DISCID=b7099710
DTITLE=The Gories - I Know You Fine, But How You Doin'
DYEAR=1900
DGENRE=Blues
TTITLE0=Hey Hey We're The Gories
TTITLE1=You Make It More
TTITLE2=Detroit Breakdown
TTITLE3=Stranded
TTITLE4=Goin' To The River
TTITLE5=Early In The Morning
TTITLE6=Thunderbird ESQ
TTITLE7=Nitroglycerine
TTITLE8=Let Your Daddy Ride
TTITLE9=Six Cold Feet
TTITLE10=Queenie
TTITLE11=Smashed
TTITLE12=Ghostrider
TTITLE13=Chick-In
TTITLE14=View From Here
TTITLE15=Makin' Love
EXTD=ID3G: 0
EXTT0=
EXTT1=
EXTT2=
EXTT3=
EXTT4=
EXTT5=
EXTT6=
EXTT7=
EXTT8=
EXTT9=
EXTT10=
EXTT11=
EXTT12=
EXTT13=
EXTT14=
EXTT15=
PLAYORDER=
